<svg width="100%" height="100%" id="svg" viewBox="0 0 1440 690" xmlns="http://www.w3.org/2000/svg"
     class="transition duration-300 ease-in-out delay-150">
    <path d="M 0,700 C 0,700 0,175 0,175 C 70.07069219440355,179.87849779086892 140.1413843888071,184.75699558173784 198,187 C 255.8586156111929,189.24300441826216 301.5051546391752,188.8505154639175 355,173 C 408.4948453608248,157.1494845360825 469.837997054492,125.84094256259203 531,139 C 592.162002945508,152.15905743740797 653.142857142857,209.78571428571428 716,218 C 778.857142857143,226.21428571428572 843.5905743740794,185.0162002945508 908,186 C 972.4094256259206,186.9837997054492 1036.4948453608247,230.14948453608244 1102,235 C 1167.5051546391753,239.85051546391756 1234.4300441826215,206.38586156111933 1291,190 C 1347.5699558173785,173.61413843888067 1393.7849779086891,174.30706921944034 1440,175 C 1440,175 1440,700 1440,700 Z"
          stroke="none" stroke-width="0" fill="rgb(51,161,185)" fill-opacity="0.4"
          class="transition-all duration-300 ease-in-out delay-150 path-0"></path>
    <path d="M 0,700 C 0,700 0,350 0,350 C 60.058910162002945,382.73840206185565 120.11782032400589,415.4768041237113 179,403 C 237.8821796759941,390.5231958762887 295.58762886597935,332.83118556701027 349,308 C 402.41237113402065,283.16881443298973 451.53166421207663,291.1984536082474 514,307 C 576.4683357879234,322.8015463917526 652.2857142857143,346.375 720,354 C 787.7142857142857,361.625 847.3254786450661,353.3015463917526 912,347 C 976.6745213549339,340.6984536082474 1046.4123711340205,336.4188144329897 1110,329 C 1173.5876288659795,321.5811855670103 1231.0250368188513,311.02319587628864 1285,314 C 1338.9749631811487,316.97680412371136 1389.4874815905744,333.4884020618557 1440,350 C 1440,350 1440,700 1440,700 Z"
          stroke="none" stroke-width="0" fill="rgb(148,193,31)" fill-opacity="0.53"
          class="transition-all duration-300 ease-in-out delay-150 path-1"></path>
    <path d="M 0,700 C 0,700 0,525 0,525 C 54.58394698085421,514.5541237113403 109.16789396170842,504.1082474226804 173,503 C 236.83210603829158,501.8917525773196 309.9123711340206,510.12113402061857 363,527 C 416.0876288659794,543.8788659793814 449.18262150220914,569.4072164948453 511,558 C 572.8173784977909,546.5927835051547 663.3571428571429,498.25 732,508 C 800.6428571428571,517.75 847.3888070692194,585.5927835051547 896,588 C 944.6111929307806,590.4072164948453 995.0876288659795,527.3788659793815 1057,503 C 1118.9123711340205,478.62113402061846 1192.2606774668632,492.8917525773196 1258,503 C 1323.7393225331368,513.1082474226804 1381.8696612665685,519.0541237113403 1440,525 C 1440,525 1440,700 1440,700 Z"
          stroke="none" stroke-width="0" fill="rgb(234,91,12)" fill-opacity="1"
          class="transition-all duration-300 ease-in-out delay-150 path-2"></path>
</svg>